<svg xmlns="http://www.w3.org/2000/svg" fill="#8df6ec" stroke="#8df6ec" stroke-width=".25em" viewBox="0 20 200 200">
    <path d="M49.3,-57.8C60.7,-47.3,70.7,-34.8,76.7,-19.6C82.7,-4.4,84.7,13.6,79.7,28.6C74.7,43.6,62.7,55.6,48.6,67.4C34.6,79.1,18.4,90.6,2.4,88.8C-13.6,87,-27.6,71.8,-39.1,56.6C-50.7,41.4,-59.7,26.1,-67.1,9.8C-74.5,-6.5,-80.3,-23.8,-76.3,-38.9C-72.3,-54,-58.5,-66.9,-43.6,-75.8C-28.7,-84.6,-12.7,-89.5,3.7,-89.3C20,-89,39.9,-83.5,49.3,-72.5Z" class="blob-fill" transform="translate(100 100)"/>
    <path d="M49.3,-57.8C60.7,-47.3,70.7,-34.8,76.7,-19.6C82.7,-4.4,84.7,13.6,79.7,28.6C74.7,43.6,62.7,55.6,48.6,67.4C34.6,79.1,18.4,90.6,2.4,88.8C-13.6,87,-27.6,71.8,-39.1,56.6C-50.7,41.4,-59.7,26.1,-67.1,9.8C-74.5,-6.5,-80.3,-23.8,-76.3,-38.9C-72.3,-54,-58.5,-66.9,-43.6,-75.8C-28.7,-84.6,-12.7,-89.5,3.7,-89.3C20,-89,39.9,-83.5,49.3,-72.5Z" class="blob-stroke" transform="translate(100 100)"/>
</svg>