<svg version="1.1" xmlns="http://www.w3.org/2000/svg" viewBox="0 0 107.75533096708995 109.14493311792648" width="323.26599290126984" height="327.43479935377945">

    <g stroke-linecap="round" transform="translate(10 30.931398250189886) rotate(0 36.389709753126425 34.1067674338683)">
        <path d="M17.05 0 M17.05 0 C31.34 0.09, 43.3 -0.35, 55.73 0 M17.05 0 C27.36 0.31, 38.85 0.11, 55.73 0 M55.73 0 C68.24 0.55, 72.78 6.67, 72.78 17.05 M55.73 0 C68.19 -0.76, 70.68 7.66, 72.78 17.05 M72.78 17.05 C73.71 25.46, 73.3 32.44, 72.78 51.16 M72.78 17.05 C72.77 29.15, 72.42 39.11, 72.78 51.16 M72.78 51.16 C73.41 63.37, 67.53 66.26, 55.73 68.21 M72.78 51.16 C73.3 64.24, 66.96 66.46, 55.73 68.21 M55.73 68.21 C46.09 69.91, 36.66 67.45, 17.05 68.21 M55.73 68.21 C41.08 67.93, 27.7 67.64, 17.05 68.21 M17.05 68.21 C7.62 67.34, -0.59 61.39, 0 51.16 M17.05 68.21 C4.41 66.14, -1.03 61.63, 0 51.16 M0 51.16 C1.82 41.94, -1.17 34.46, 0 17.05 M0 51.16 C0.11 40.67, 0.27 32.5, 0 17.05 M0 17.05 C-0.48 7.11, 6.98 -0.21, 17.05 0 M0 17.05 C-2.26 6.52, 3.95 -1.69, 17.05 0" stroke="#303030" stroke-width="1" fill="none"></path>
    </g>
    <g stroke-linecap="round" transform="translate(24.975911460837125 10) rotate(0 36.38970975312641 34.1067674338683)">
        <path d="M17.05 0 M17.05 0 C25.06 -0.84, 33.23 -1.05, 55.73 0 M17.05 0 C26.18 -0.31, 34.42 1.09, 55.73 0 M55.73 0 C65.55 -1.14, 74.44 5.01, 72.78 17.05 M55.73 0 C67.83 1.2, 74.84 7.28, 72.78 17.05 M72.78 17.05 C73.07 29.99, 72.17 43.22, 72.78 51.16 M72.78 17.05 C73.67 29.91, 72.99 40.6, 72.78 51.16 M72.78 51.16 C73.08 60.8, 67.07 67.88, 55.73 68.21 M72.78 51.16 C71.56 62.19, 66.67 65.94, 55.73 68.21 M55.73 68.21 C47.42 66.27, 42.04 66.49, 17.05 68.21 M55.73 68.21 C44.88 67.33, 32.09 68.13, 17.05 68.21 M17.05 68.21 C4.69 66.73, 0.34 64.15, 0 51.16 M17.05 68.21 C7.03 69.19, -1.79 62.02, 0 51.16 M0 51.16 C-0.94 45.06, 0.86 36.84, 0 17.05 M0 51.16 C-0.94 42.12, -0.19 33.45, 0 17.05 M0 17.05 C1.21 5.66, 3.97 0.92, 17.05 0 M0 17.05 C-0.87 5.75, 3.41 2.25, 17.05 0" stroke="#303030" stroke-width="1" fill="none"></path>
    </g>
    <g stroke-linecap="round">
        <g transform="translate(76.95622255129274 33.358187208956224) rotate(0 6.931724006436937 -8.992991778869282)">
            <path d="M0.04 0.13 C2.42 -2.72, 10.57 -13.55, 13.13 -16.5 M-1.39 -0.85 C1.44 -4.07, 12.47 -15.53, 15.26 -18.11" stroke="#303030" stroke-width="1" fill="none"></path>
        </g>
    </g>
    <mask></mask>
    <g stroke-linecap="round">
        <g transform="translate(11.957156157367393 33.26586445854855) rotate(0 7.7461597912302835 -8.907177350125721)">
            <path d="M-1.01 1.1 C1.67 -2.02, 13.67 -15.58, 16.5 -18.92 M0.67 0.64 C3.13 -2.33, 12.47 -14.66, 15.44 -17.76" stroke="#303030" stroke-width="1" fill="none"></path>
        </g>
    </g>
    <mask></mask>
    <g stroke-linecap="round">
        <g transform="translate(18.561216796081112 95.09963651537691) rotate(0 6.369303048300722 -8.55487632649033)">
            <path d="M0.11 -1.14 C2.31 -4.12, 11.8 -15.16, 14.02 -17.98 M-1.28 0.87 C0.66 -1.93, 10.08 -13.72, 12.95 -16.7" stroke="#303030" stroke-width="1" fill="none"></path>
        </g>
    </g>
    <mask></mask>
    <g stroke-linecap="round">
        <g transform="translate(82.94810731976989 90.60178012050665) rotate(0 5.7055358491321755 -8.462911642481458)">
            <path d="M-0.71 0.5 C1.13 -2.56, 10.28 -14.48, 12.13 -17.42 M1.11 -0.29 C2.78 -3.24, 9.72 -13.42, 11.66 -16" stroke="#303030" stroke-width="1" fill="none"></path>
        </g>
    </g>
    <mask></mask>
    <g transform="translate(54.354707447407776 19.99338582752989) rotate(0 0.00005000000000165983 0.00005000000010113581)" stroke="none">
        <path fill="#303030" d="M 2.12,-2.12 Q 2.12,-2.12 2.40,-1.73 2.69,-1.33 2.83,-0.87 2.97,-0.40 2.96,0.08 2.95,0.56 2.78,1.02 2.61,1.47 2.31,1.85 2.00,2.23 1.59,2.49 1.18,2.76 0.71,2.87 0.24,2.99 -0.24,2.95 -0.72,2.91 -1.17,2.72 -1.61,2.53 -1.98,2.20 -2.34,1.88 -2.58,1.45 -2.82,1.03 -2.91,0.55 -3.00,0.08 -2.93,-0.40 -2.87,-0.88 -2.65,-1.31 -2.44,-1.75 -2.09,-2.09 -1.75,-2.44 -1.31,-2.65 -0.88,-2.87 -0.39,-2.93 0.08,-3.00 0.55,-2.91 1.03,-2.82 1.46,-2.58 1.88,-2.34 2.20,-1.97 2.53,-1.61 2.72,-1.17 2.91,-0.72 2.95,-0.23 2.99,0.24 2.87,0.71 2.76,1.18 2.49,1.59 2.23,2.00 1.85,2.31 1.47,2.61 1.02,2.78 0.56,2.95 0.07,2.96 -0.40,2.97 -0.87,2.83 -1.33,2.69 -1.73,2.40 -2.12,2.12 -2.12,2.12 -2.12,2.12 -2.34,1.83 -2.57,1.55 -2.72,1.22 -2.86,0.89 -2.93,0.53 -2.99,0.18 -2.97,-0.18 -2.95,-0.54 -2.84,-0.88 -2.74,-1.23 -2.55,-1.54 -2.36,-1.85 -2.10,-2.10 -1.85,-2.36 -1.54,-2.55 -1.23,-2.74 -0.88,-2.84 -0.54,-2.95 -0.18,-2.97 0.18,-2.99 0.53,-2.93 0.89,-2.86 1.22,-2.72 1.55,-2.57 1.83,-2.34 2.12,-2.12 2.12,-2.12 L 2.12,-2.12 Z"></path>
    </g>
    <g transform="translate(55.0402199014149 88.01160047730309) rotate(0 0.00005000000000165983 0.00005000000010113581)" stroke="none">
        <path fill="#303030" d="M 2.12,-2.12 Q 2.12,-2.12 2.40,-1.73 2.69,-1.33 2.83,-0.87 2.97,-0.40 2.96,0.08 2.95,0.56 2.78,1.02 2.61,1.47 2.31,1.85 2.00,2.23 1.59,2.49 1.18,2.76 0.71,2.87 0.24,2.99 -0.24,2.95 -0.72,2.91 -1.17,2.72 -1.61,2.53 -1.98,2.20 -2.34,1.88 -2.58,1.45 -2.82,1.03 -2.91,0.55 -3.00,0.08 -2.93,-0.40 -2.87,-0.88 -2.65,-1.31 -2.44,-1.75 -2.09,-2.09 -1.75,-2.44 -1.31,-2.65 -0.88,-2.87 -0.39,-2.93 0.08,-3.00 0.55,-2.91 1.03,-2.82 1.46,-2.58 1.88,-2.34 2.20,-1.97 2.53,-1.61 2.72,-1.17 2.91,-0.72 2.95,-0.23 2.99,0.24 2.87,0.71 2.76,1.18 2.49,1.59 2.23,2.00 1.85,2.31 1.47,2.61 1.02,2.78 0.56,2.95 0.07,2.96 -0.40,2.97 -0.87,2.83 -1.33,2.69 -1.73,2.40 -2.12,2.12 -2.12,2.12 -2.12,2.12 -2.34,1.83 -2.57,1.55 -2.72,1.22 -2.86,0.89 -2.93,0.53 -2.99,0.18 -2.97,-0.18 -2.95,-0.54 -2.84,-0.88 -2.74,-1.23 -2.55,-1.54 -2.36,-1.85 -2.10,-2.10 -1.85,-2.36 -1.54,-2.55 -1.23,-2.74 -0.88,-2.84 -0.54,-2.95 -0.18,-2.97 0.18,-2.99 0.53,-2.93 0.89,-2.86 1.22,-2.72 1.55,-2.57 1.83,-2.34 2.12,-2.12 2.12,-2.12 L 2.12,-2.12 Z"></path>
    </g>
    <g transform="translate(18.4562143376246 56.12699764883655) rotate(0 0.00005000000000165983 0.00005000000010113581)" stroke="none">
        <path fill="#303030" d="M 2.12,-2.12 Q 2.12,-2.12 2.40,-1.73 2.69,-1.33 2.83,-0.87 2.97,-0.40 2.96,0.08 2.95,0.56 2.78,1.02 2.61,1.47 2.31,1.85 2.00,2.23 1.59,2.49 1.18,2.76 0.71,2.87 0.24,2.99 -0.24,2.95 -0.72,2.91 -1.17,2.72 -1.61,2.53 -1.98,2.20 -2.34,1.88 -2.58,1.45 -2.82,1.03 -2.91,0.55 -3.00,0.08 -2.93,-0.40 -2.87,-0.88 -2.65,-1.31 -2.44,-1.75 -2.09,-2.09 -1.75,-2.44 -1.31,-2.65 -0.88,-2.87 -0.39,-2.93 0.08,-3.00 0.55,-2.91 1.03,-2.82 1.46,-2.58 1.88,-2.34 2.20,-1.97 2.53,-1.61 2.72,-1.17 2.91,-0.72 2.95,-0.23 2.99,0.24 2.87,0.71 2.76,1.18 2.49,1.59 2.23,2.00 1.85,2.31 1.47,2.61 1.02,2.78 0.56,2.95 0.07,2.96 -0.40,2.97 -0.87,2.83 -1.33,2.69 -1.73,2.40 -2.12,2.12 -2.12,2.12 -2.12,2.12 -2.34,1.83 -2.57,1.55 -2.72,1.22 -2.86,0.89 -2.93,0.53 -2.99,0.18 -2.97,-0.18 -2.95,-0.54 -2.84,-0.88 -2.74,-1.23 -2.55,-1.54 -2.36,-1.85 -2.10,-2.10 -1.85,-2.36 -1.54,-2.55 -1.23,-2.74 -0.88,-2.84 -0.54,-2.95 -0.18,-2.97 0.18,-2.99 0.53,-2.93 0.89,-2.86 1.22,-2.72 1.55,-2.57 1.83,-2.34 2.12,-2.12 2.12,-2.12 L 2.12,-2.12 Z"></path>
    </g>
    <g transform="translate(91.03185721229613 53.86783578927543) rotate(0 0.00004999999998744897 0.00005000000010113581)" stroke="none">
        <path fill="#303030" d="M 2.12,-2.12 Q 2.12,-2.12 2.40,-1.73 2.69,-1.33 2.83,-0.87 2.97,-0.40 2.96,0.08 2.95,0.56 2.78,1.02 2.61,1.47 2.31,1.85 2.00,2.23 1.59,2.49 1.18,2.76 0.71,2.87 0.24,2.99 -0.24,2.95 -0.72,2.91 -1.17,2.72 -1.61,2.53 -1.98,2.20 -2.34,1.88 -2.58,1.45 -2.82,1.03 -2.91,0.55 -3.00,0.08 -2.93,-0.40 -2.87,-0.88 -2.65,-1.31 -2.44,-1.75 -2.09,-2.09 -1.75,-2.44 -1.31,-2.65 -0.88,-2.87 -0.39,-2.93 0.08,-3.00 0.55,-2.91 1.03,-2.82 1.46,-2.58 1.88,-2.34 2.20,-1.97 2.53,-1.61 2.72,-1.17 2.91,-0.72 2.95,-0.23 2.99,0.24 2.87,0.71 2.76,1.18 2.49,1.59 2.23,2.00 1.85,2.31 1.47,2.61 1.02,2.78 0.56,2.95 0.07,2.96 -0.40,2.97 -0.87,2.83 -1.33,2.69 -1.73,2.40 -2.12,2.12 -2.12,2.12 -2.12,2.12 -2.34,1.83 -2.57,1.55 -2.72,1.22 -2.86,0.89 -2.93,0.53 -2.99,0.18 -2.97,-0.18 -2.95,-0.54 -2.84,-0.88 -2.74,-1.23 -2.55,-1.54 -2.36,-1.85 -2.10,-2.10 -1.85,-2.36 -1.54,-2.55 -1.23,-2.74 -0.88,-2.84 -0.54,-2.95 -0.18,-2.97 0.18,-2.99 0.53,-2.93 0.89,-2.86 1.22,-2.72 1.55,-2.57 1.83,-2.34 2.12,-2.12 2.12,-2.12 L 2.12,-2.12 Z"></path>
    </g>
    <g stroke-linecap="round">
        <g transform="translate(53.84978568677417 21.76888042273049) rotate(0 0.6118558432233101 33.36973440628935)">
            <path d="M0 0 C0.2 11.12, 1.02 55.62, 1.22 66.74" stroke="#303030" stroke-width="1.5" fill="none" stroke-dasharray="1.5 7"></path>
        </g>
    </g>
    <mask></mask>
    <g stroke-linecap="round">
        <g transform="translate(18.37367486628517 57.06633149267782) rotate(0 36.34403166116155 -1.5064909383709164)">
            <path d="M0 0 C12.11 -0.5, 60.57 -2.51, 72.69 -3.01" stroke="#303030" stroke-width="1.5" fill="none" stroke-dasharray="1.5 7"></path>
        </g>
    </g>
    <mask></mask>
</svg>